<svg xmlns="http://www.w3.org/2000/svg" width="800" height="450" viewBox="0 0 800 450" role="img" aria-labelledby="title">
  <title id="title">最小値を選んで左から確定する選択ソート</title>
  <rect width="800" height="450" rx="32" fill="#eff6ff"/>
  <text x="55" y="72" font-family="sans-serif" font-size="30" font-weight="bold" fill="#1e3a8a">SELECTION SORT</text>
  <g font-family="sans-serif" font-size="42" font-weight="bold" text-anchor="middle" fill="#0f172a">
    <rect x="65" y="115" width="130" height="100" rx="18" fill="white" stroke="#94a3b8" stroke-width="3"/><text x="130" y="180">7</text>
    <rect x="245" y="115" width="130" height="100" rx="18" fill="white" stroke="#94a3b8" stroke-width="3"/><text x="310" y="180">4</text>
    <rect x="425" y="115" width="130" height="100" rx="18" fill="white" stroke="#94a3b8" stroke-width="3"/><text x="490" y="180">6</text>
    <rect x="605" y="115" width="130" height="100" rx="18" fill="#dbeafe" stroke="#2563eb" stroke-width="4"/><text x="670" y="180">2</text>
    <rect x="65" y="310" width="130" height="100" rx="18" fill="#dcfce7" stroke="#15803d" stroke-width="4"/><text x="130" y="375">2</text>
    <rect x="245" y="310" width="130" height="100" rx="18" fill="white" stroke="#94a3b8" stroke-width="3"/><text x="310" y="375">4</text>
    <rect x="425" y="310" width="130" height="100" rx="18" fill="white" stroke="#94a3b8" stroke-width="3"/><text x="490" y="375">6</text>
    <rect x="605" y="310" width="130" height="100" rx="18" fill="white" stroke="#94a3b8" stroke-width="3"/><text x="670" y="375">7</text>
  </g>
  <path d="M660 228 Q400 300 142 285" fill="none" stroke="#2563eb" stroke-width="5"/>
  <path d="m160 272-23 13 23 13" fill="none" stroke="#2563eb" stroke-width="5"/>
</svg>
